<svg width="40" height="40" viewBox="0 0 40 40" fill="none" xmlns="http://www.w3.org/2000/svg">
<path d="M5 21.6667V18.3333H8.33333V21.6667H5ZM5 15V11.6667H8.33333V15H5ZM11.6667 8.33333V5H15V8.33333H11.6667ZM18.3333 35V31.6667H21.6667V35H18.3333ZM18.3333 8.33333V5H21.6667V8.33333H18.3333ZM25 35V31.6667H28.3333V35H25ZM31.6667 28.3333V25H35V28.3333H31.6667ZM31.6667 21.6667V18.3333H35V21.6667H31.6667ZM33.3333 15C32.8611 15 32.4656 14.84 32.1467 14.52C31.8267 14.2011 31.6667 13.8056 31.6667 13.3333V8.33333H26.6667C26.1944 8.33333 25.7989 8.17333 25.48 7.85333C25.16 7.53444 25 7.13889 25 6.66667C25 6.19444 25.16 5.79833 25.48 5.47833C25.7989 5.15944 26.1944 5 26.6667 5H31.6667C32.5833 5 33.3683 5.32611 34.0217 5.97833C34.6739 6.63167 35 7.41667 35 8.33333V13.3333C35 13.8056 34.84 14.2011 34.52 14.52C34.2011 14.84 33.8056 15 33.3333 15ZM8.33333 35C7.41667 35 6.63167 34.6739 5.97833 34.0217C5.32611 33.3683 5 32.5833 5 31.6667V26.6667C5 26.1944 5.16 25.7983 5.48 25.4783C5.79889 25.1594 6.19444 25 6.66667 25C7.13889 25 7.535 25.1594 7.855 25.4783C8.17389 25.7983 8.33333 26.1944 8.33333 26.6667V31.6667H13.3333C13.8056 31.6667 14.2017 31.8267 14.5217 32.1467C14.8406 32.4656 15 32.8611 15 33.3333C15 33.8056 14.8406 34.2011 14.5217 34.52C14.2017 34.84 13.8056 35 13.3333 35H8.33333ZM31.6667 35V31.6667H35C35 32.5833 34.6739 33.3683 34.0217 34.0217C33.3683 34.6739 32.5833 35 31.6667 35ZM5 8.33333C5 7.41667 5.32611 6.63167 5.97833 5.97833C6.63167 5.32611 7.41667 5 8.33333 5V8.33333H5Z" fill="#BC9C57"/>
</svg>
