<svg fill="currentColor" class="h-8 w-8 " xmlns="http://www.w3.org/2000/svg" viewBox="0 0 3.44 3.86"><path d="M3.33 2.83c-0.1,-0.05 -0.23,-0.03 -0.3,0.05 -0.02,0.03 -0.05,0.06 -0.08,0.09 -0.68,0.68 -1.86,0.55 -2.34,-0.4 -0.2,-0.4 -0.2,-0.88 0,-1.28 0.48,-0.95 1.66,-1.09 2.34,-0.4 0.03,0.03 0.05,0.05 0.08,0.08 0.07,0.09 0.2,0.11 0.3,0.05 0.12,-0.06 0.15,-0.22 0.06,-0.33 -0.04,-0.04 -0.08,-0.08 -0.12,-0.13 -0.88,-0.89 -2.42,-0.72 -3.06,0.51 -0.28,0.53 -0.28,1.18 0,1.72 0.64,1.23 2.18,1.4 3.06,0.5 0.04,-0.04 0.08,-0.08 0.12,-0.12 0.09,-0.11 0.05,-0.27 -0.06,-0.34zm-1.03 -0.52c-0.21,0.21 -0.54,0.21 -0.75,0 -0.21,-0.21 -0.21,-0.55 0,-0.76 0.21,-0.21 0.54,-0.21 0.75,0 0.21,0.21 0.21,0.55 0,0.76zm0.33 -1.09c-0.39,-0.4 -1.02,-0.4 -1.41,0 -0.39,0.39 -0.39,1.03 0,1.42 0.39,0.4 1.02,0.4 1.41,0 0.39,-0.39 0.39,-1.03 0,-1.42z"/></svg>