<svg width="1255" height="151" viewBox="0 0 1255 151" fill="none" xmlns="http://www.w3.org/2000/svg">
<path fill-rule="evenodd" clip-rule="evenodd" d="M1237.13 144.597C1237.17 144.885 1237.15 145.179 1237.06 145.456C1236.98 145.734 1236.83 145.987 1236.63 146.197C1236.42 146.406 1236.18 146.565 1235.9 146.662C1235.63 146.759 1235.34 146.791 1235.05 146.755H1222.16C1221.88 146.79 1221.58 146.759 1221.31 146.662C1221.04 146.565 1220.79 146.405 1220.59 146.196C1220.38 145.987 1220.23 145.733 1220.15 145.456C1220.06 145.178 1220.04 144.884 1220.08 144.597V83.9813C1220.08 80.5308 1219.39 78.4457 1218.01 77.7261C1215.71 77.0979 1213.32 76.879 1210.94 77.0795H1149.01C1146.64 76.8794 1144.25 77.0982 1141.95 77.7261C1140.56 78.4453 1139.87 80.5303 1139.87 83.9813V144.597C1139.92 144.885 1139.89 145.179 1139.81 145.456C1139.72 145.734 1139.57 145.987 1139.37 146.197C1139.17 146.406 1138.92 146.565 1138.64 146.662C1138.37 146.759 1138.08 146.791 1137.79 146.755H1124.91C1123.52 146.755 1122.83 146.035 1122.83 144.597V28.3283C1122.83 20.7065 1121.86 15.8529 1119.92 13.7675C1117.98 11.682 1113.34 10.1362 1106 9.13002C1105.73 9.12543 1105.46 9.06422 1105.22 8.95035C1104.97 8.83647 1104.76 8.67244 1104.58 8.469C1104.4 8.26555 1104.27 8.02722 1104.19 7.76943C1104.12 7.51164 1104.09 7.24016 1104.13 6.97266C1104.13 5.24721 1104.89 4.384 1106.41 4.38298H1137.79C1138.08 4.34687 1138.37 4.37852 1138.64 4.47539C1138.92 4.57226 1139.17 4.73169 1139.37 4.9411C1139.57 5.1505 1139.72 5.40416 1139.81 5.6819C1139.89 5.95964 1139.92 6.25386 1139.87 6.54132V61.5473C1139.87 64.9987 1140.56 67.0839 1141.95 67.8026C1144.25 68.4311 1146.64 68.65 1149.01 68.4494H1210.94C1213.32 68.6504 1215.71 68.4315 1218.01 67.8026C1219.39 67.0837 1220.08 64.9987 1220.08 61.5127V6.54132C1220.04 6.254 1220.06 5.95989 1220.15 5.68227C1220.23 5.40465 1220.38 5.15115 1220.59 4.94177C1220.79 4.7324 1221.04 4.57293 1221.31 4.47595C1221.58 4.37897 1221.87 4.34711 1222.16 4.38298H1252.71C1254.24 4.38298 1255 5.24619 1255 6.97266C1255.03 7.23758 1255.01 7.5066 1254.93 7.76243C1254.86 8.01827 1254.73 8.2553 1254.56 8.45838C1254.38 8.66146 1254.17 8.8261 1253.93 8.94176C1253.69 9.05741 1253.43 9.12154 1253.16 9.13002C1248.76 9.54237 1244.49 10.8644 1240.62 13.0129C1238.3 15.1702 1237.13 19.4833 1237.13 25.9561L1237.13 144.597ZM891.947 150.206C871.162 150.206 853.913 145.388 840.2 135.752C820.527 121.948 810.69 102.175 810.688 76.4328C810.688 53.1348 818.932 34.5114 835.42 20.5627C851.601 7.24143 872.058 0.265523 892.985 0.932704C905.398 1.29738 917.733 3.03407 929.767 6.11115C930.875 6.39873 932.019 6.68594 933.197 6.97284C933.744 7.0891 934.26 7.32274 934.708 7.65774C935.157 7.99275 935.527 8.42115 935.795 8.91347C935.795 9.92201 935.864 11.3602 936.002 13.2281C936.279 16.6796 936.556 20.3471 936.833 24.2305C937.802 34.1514 938.287 38.5372 938.287 37.388C938.287 39.1136 937.318 39.9769 935.38 39.9776C934.801 40.0384 934.219 39.9009 933.728 39.5875C933.238 39.2741 932.867 38.8033 932.678 38.2519C931.984 35.9495 930.806 32.4976 929.145 27.8962C922.355 14.3791 909.401 7.62018 890.283 7.61951C871.717 7.61951 857.17 13.8031 846.642 26.1705C836.527 37.9622 831.469 53.6376 831.47 73.1967C831.47 93.4731 836.805 110.083 847.474 123.027C853.009 129.738 860.013 135.078 867.943 138.632C875.872 142.186 884.513 143.858 893.192 143.518C900.812 143.846 908.38 142.118 915.106 138.514C921.832 134.909 927.47 129.561 931.43 123.027C932.538 120.869 934.201 117.706 936.419 113.536C936.616 113.048 936.965 112.637 937.415 112.365C937.864 112.092 938.389 111.973 938.912 112.025C940.852 112.025 941.821 112.96 941.82 114.829C941.82 115.116 941.405 116.986 940.575 120.438C939.328 125.614 938.15 129.784 937.041 132.948C934.963 139.134 933.024 142.585 931.222 143.303C918.682 148.068 905.356 150.41 891.947 150.206ZM591.028 27.2495H590.611C589.227 29.8392 585.729 39.0786 580.117 54.9676C576.8 63.4576 573.99 72.1379 571.702 80.9624C571.702 82.1117 572.741 82.687 574.819 82.6881H603.288C606.475 82.6881 608.068 81.8974 608.068 80.3159C606.019 71.6244 603.487 63.0544 600.485 54.6457C595.428 38.9711 592.276 29.839 591.028 27.2495ZM292.189 146.754C290.803 146.754 290.11 146.035 290.111 144.597L290.318 25.9561C290.59 22.4005 289.946 18.8347 288.448 15.6003C287.497 14.141 286.244 12.904 284.774 11.9736C283.304 11.0433 281.651 10.4414 279.928 10.2088C278.404 9.9217 276.88 9.59806 275.356 9.2379C273.832 8.87794 273.071 8.05109 273.071 6.75733C273.071 4.74275 273.832 3.73574 275.356 3.73625C277.712 3.73625 281.315 3.8443 286.163 4.0605C291.01 4.27566 294.681 4.38311 297.176 4.38279H344.974C347.052 4.38279 350.273 4.27534 354.636 4.0605C359.003 3.84382 362.295 3.73576 364.51 3.73625C365.479 3.73625 366.207 4.34708 366.693 5.5688C367.596 9.57619 368.151 13.6543 368.354 17.7576C368.977 24.6248 369.29 29.082 369.29 31.0974C369.336 31.4606 369.298 31.8297 369.177 32.1753C369.057 32.521 368.857 32.8336 368.595 33.0884C368.333 33.3433 368.014 33.5332 367.666 33.6431C367.318 33.7531 366.948 33.7801 366.588 33.7219C365.916 33.7228 365.265 33.4851 364.751 33.0508C364.237 32.6166 363.893 32.0138 363.781 31.3496C363.297 29.7664 362.846 28.2557 362.43 26.8175C361.588 23.3911 359.857 20.2493 357.411 17.711C354.966 15.1727 351.894 13.3286 348.508 12.3659C342.617 11.2713 336.622 10.8367 330.636 11.0703H312.139C309.784 11.0703 308.33 11.6457 307.776 12.7963C307.19 14.4543 306.977 16.2218 307.152 17.9722V62.8411C307.152 65.8624 307.498 67.6243 308.191 68.1268C310.047 68.8228 312.038 69.081 314.01 68.8814H353.287C354.674 68.8814 355.366 69.8885 355.366 71.9027C355.366 74.9216 354.534 76.4315 352.871 76.4323H314.01C312.184 76.2407 310.338 76.4617 308.608 77.0791C307.636 77.6541 307.151 79.3797 307.152 82.2561V113.967C307.152 125.182 308.434 132.192 310.997 134.998C313.559 137.802 332.367 139.204 367.419 139.203C371.991 139.203 373.654 139.131 372.406 138.988C374.623 139.276 375.731 140.139 375.73 141.578C375.645 142.723 375.289 143.832 374.691 144.812C373.999 146.107 373.238 146.755 372.406 146.754L292.189 146.754ZM35.1208 79.2368V111.161C34.6387 118.333 35.6287 125.528 38.0296 132.301C40.9418 137.909 46.8995 140.714 55.9027 140.714C77.6549 140.714 88.5308 130.647 88.5304 110.514C88.5304 98.0027 84.5823 88.5835 76.6862 82.2564C68.1228 76.0817 57.7066 73.0366 47.1746 73.6288C44.5407 73.5643 41.9053 73.6357 39.2787 73.8429C38.0401 74.0615 36.9273 74.7355 36.1583 75.7331C35.3893 76.7308 35.0193 77.9801 35.1208 79.2368ZM35.1208 17.326V61.1158C34.8934 62.9094 35.2583 64.7284 36.1594 66.2945C37.7187 67.2365 39.5518 67.6172 41.356 67.3737C53.1328 67.3737 61.7914 65.7197 67.3319 62.4117C74.816 58.2411 78.5575 50.6189 78.5564 39.5453C78.8128 35.472 78.1414 31.3937 76.5931 27.619C75.0447 23.8443 72.66 20.4722 69.6194 17.758C63.4683 12.6053 55.5959 9.9843 47.5918 10.4243C44.3948 10.2701 41.1953 10.6714 38.1347 11.6103C36.1266 12.402 35.1219 14.3073 35.1208 17.326ZM598.509 0.932582H598.49C597.921 1.02873 597.408 1.33725 597.056 1.7963C594.457 4.46688 591.522 6.78711 588.326 8.69863C587.95 8.86213 587.63 9.13408 587.408 9.47987C587.186 9.82565 587.072 10.2297 587.079 10.6408C586.304 15.3578 585.05 19.9832 583.339 24.4456C567.267 67.8753 552.374 107.997 538.66 144.812C538.66 146.108 539.421 146.755 540.944 146.754C546.21 146.754 549.05 146.251 549.464 145.244C551.819 139.348 553.689 134.387 555.075 130.361C562.557 109.22 566.437 98.2902 566.715 97.5712C567.17 95.7402 567.981 94.0174 569.102 92.5019C570.459 91.5352 572.127 91.1122 573.779 91.3159H606.615C608.24 91.2252 609.844 91.7185 611.139 92.7071C612.434 93.6957 613.335 95.1148 613.68 96.7095L629.057 145.244C629.131 145.682 629.362 146.077 629.707 146.356C630.052 146.634 630.487 146.776 630.93 146.754H645.684C647.069 146.754 647.761 146.107 647.761 144.812C647.761 144.525 640.834 123.817 626.98 82.688C612.573 39.6899 604.745 16.0338 603.496 11.7197C602.942 9.70518 602.388 7.69185 601.836 5.67963C600.726 2.51577 599.618 0.933413 598.509 0.932582ZM0 8.26581C0 6.25376 2.00938 5.03189 6.02815 4.60021H14.3413C23.4837 4.02404 34.0819 3.73611 46.1359 3.73643C79.9426 3.73643 96.8452 14.7379 96.8435 36.741C96.8435 49.3966 89.7773 59.2477 75.645 66.2943C75.7846 67.8753 77.1007 68.9532 79.5933 69.5283C86.6938 71.5398 93.0628 75.5663 97.9331 81.1229C102.803 86.6794 105.967 93.529 107.043 100.847C108.119 108.164 107.062 115.638 103.999 122.367C100.935 129.096 95.9964 134.793 89.7769 138.773C78.2475 145.004 65.2489 147.986 52.1638 147.401C51.0554 147.401 44.1282 147.257 31.3821 146.969C28.8872 146.969 25.1464 146.898 20.1598 146.754C19.8773 146.766 19.5955 146.718 19.3329 146.613C19.0703 146.508 18.833 146.348 18.6366 146.144C18.4402 145.941 18.2892 145.697 18.1935 145.43C18.0979 145.164 18.0597 144.88 18.0817 144.597V32.4254C18.2173 28.2505 18.0782 24.0713 17.6652 19.9148C17.3321 17.9519 16.3895 16.1445 14.9717 14.7501C13.554 13.3557 11.7334 12.4454 9.76931 12.149C7.82862 11.8624 5.81932 11.5751 3.7414 11.2872C1.24831 10.8554 0.00117681 9.84833 0 8.26581Z" fill="white"/>
</svg>
