<svg width="28" height="31" viewBox="0 0 28 31" fill="none" xmlns="http://www.w3.org/2000/svg">
<path d="M26.7351 22.7732C26.3538 22.5521 25.9082 22.4723 25.4749 22.5474C25.0416 22.6225 24.6479 22.8479 24.3614 23.1847C24.1676 23.4151 23.9619 23.6395 23.7443 23.8579C18.277 29.3655 8.76846 28.2848 4.89148 20.6217C4.09178 19.0351 3.67491 17.28 3.67491 15.4996C3.67491 13.7193 4.09178 11.9642 4.89148 10.3776C8.76846 2.71449 18.2769 1.63774 23.7364 7.14934C23.95 7.36509 24.1531 7.58617 24.3456 7.81257C24.6351 8.15439 25.0339 8.38307 25.4729 8.45897C25.9119 8.53487 26.3633 8.45319 26.7489 8.22809C26.9718 8.09873 27.1641 7.92186 27.3123 7.7098C27.4606 7.49773 27.5613 7.25557 27.6075 7.00018C27.6536 6.74479 27.644 6.48231 27.5795 6.23103C27.5149 5.97975 27.3968 5.74571 27.2336 5.54521C26.9467 5.19961 26.6401 4.864 26.3217 4.54637C19.2007 -2.64528 6.84778 -1.29685 1.69496 8.57369C0.583107 10.7118 0.00219727 13.0906 0.00219727 15.5056C0.00219727 17.9206 0.583107 20.2995 1.69496 22.4376C6.84778 32.3061 19.2086 33.6486 26.3217 26.4649C26.6395 26.144 26.9408 25.811 27.2256 25.4661C27.3893 25.2643 27.5075 25.0289 27.572 24.7763C27.6366 24.5238 27.6459 24.26 27.5994 24.0034C27.553 23.7468 27.4517 23.5035 27.3028 23.2904C27.1539 23.0773 26.9609 22.8994 26.7371 22.7692L26.7351 22.7732Z" fill="white"/>
<path d="M21.1432 9.76827C20.0209 8.63497 18.591 7.86323 17.0343 7.55064C15.4777 7.23805 13.8642 7.39863 12.3979 8.01209C10.9316 8.62555 9.67841 9.66434 8.79668 10.9971C7.91495 12.3299 7.44434 13.8967 7.44434 15.4996C7.44434 17.1025 7.91495 18.6694 8.79668 20.0021C9.67841 21.3349 10.9316 22.3737 12.3979 22.9871C13.8642 23.6006 15.4777 23.7612 17.0343 23.4486C18.591 23.136 20.0209 22.3642 21.1432 21.231C22.6481 19.7107 23.4934 17.6492 23.4934 15.4996C23.4934 13.35 22.6481 11.2885 21.1432 9.76827ZM18.4966 18.5581C17.8974 19.1632 17.134 19.5754 16.3029 19.7424C15.4718 19.9094 14.6103 19.8237 13.8274 19.4963C13.0445 19.1688 12.3753 18.6142 11.9045 17.9026C11.4337 17.191 11.1824 16.3544 11.1824 15.4986C11.1824 14.6428 11.4337 13.8062 11.9045 13.0946C12.3753 12.383 13.0445 11.8284 13.8274 11.501C14.6103 11.1735 15.4718 11.0878 16.3029 11.2548C17.134 11.4218 17.8974 11.834 18.4966 12.4392C19.3 13.2506 19.7513 14.3511 19.7513 15.4986C19.7513 16.6461 19.3 17.7466 18.4966 18.5581Z" fill="white"/>
</svg>
