<!-- <svg width="1255" height="1032" viewBox="0 0 1255 1032" fill="none" xmlns="http://www.w3.org/2000/svg">
<path fill-rule="evenodd" clip-rule="evenodd" d="M309.891 343.629H290.242C290.231 365.253 292.278 386.828 296.356 408.062H938.603C937.115 415.317 935.386 422.477 933.417 429.542H301.226C307.043 451.79 315.123 473.381 325.341 493.974H907.541C903.612 501.308 899.409 508.467 894.934 515.451H336.983C350.776 538.827 367.318 560.46 386.253 579.884H840.409C831.996 587.509 823.183 594.678 814.008 601.361H409.222C443.16 630.304 482.492 652.206 524.937 665.796H730.061C747.884 660.097 765.199 652.912 781.826 644.317H522.839C506.244 638.511 490.161 631.327 474.758 622.84H817.725C844.046 604.78 867.694 583.089 887.971 558.407H393.048C386.768 551.52 380.788 544.361 375.108 536.931H904.231C918.255 516.798 930.045 495.192 939.391 472.495H336.987C333.883 465.465 331.025 458.306 328.413 451.018H947.387C954.378 430.076 959.292 408.494 962.059 386.585H312.758C311.808 379.497 311.089 372.337 310.601 365.106H964.088C964.531 358.003 964.754 350.844 964.757 343.629C964.754 256.513 931.206 172.76 871.108 109.833C811.01 46.9061 729.001 9.66261 642.179 5.86804C555.358 2.07348 470.426 32.0207 405.093 89.4656C339.759 146.91 299.067 227.419 291.501 314.204H311.228C318.781 232.663 357.385 157.174 419.018 103.425C480.652 49.6751 560.575 21.7979 642.18 25.586C723.785 29.3742 800.796 64.5363 857.21 123.766C913.625 182.995 945.104 261.737 945.107 343.629H309.891Z" fill="white"/>
<mask id="mask0_869_146" style="mask-type:luminance" maskUnits="userSpaceOnUse" x="290" y="-1" width="675" height="662">
<path d="M309.891 338.082H290.242C290.231 359.706 292.278 381.281 296.356 402.515H938.603C937.115 409.769 935.386 416.929 933.417 423.994H301.226C307.043 446.243 315.123 467.834 325.341 488.427H907.541C903.612 495.76 899.409 502.919 894.934 509.904H336.983C350.776 533.28 367.318 554.912 386.253 574.336H840.409C831.995 581.961 823.182 589.13 814.008 595.816H409.222C443.161 624.757 482.493 646.657 524.937 660.248H730.061C747.884 654.549 765.199 647.364 781.826 638.769H522.839C506.244 632.964 490.161 625.78 474.758 617.292H817.725C844.046 599.232 867.694 577.541 887.971 552.859H393.048C386.768 545.972 380.788 538.813 375.108 531.383H904.231C918.255 511.25 930.044 489.644 939.391 466.948H336.987C333.883 459.917 331.025 452.758 328.413 445.471H947.387C954.378 424.529 959.292 402.947 962.059 381.038H312.758C311.808 373.949 311.089 366.789 310.601 359.559H964.088C964.531 352.458 964.754 345.299 964.757 338.082C964.754 250.966 931.206 167.212 871.108 104.286C811.01 41.3587 729.001 4.11524 642.179 0.320679C555.358 -3.47388 470.426 26.4733 405.093 83.9182C339.759 141.363 299.067 221.871 291.501 308.657H311.228C318.781 227.116 357.385 151.627 419.018 97.8774C480.652 44.1278 560.575 16.2505 642.18 20.0387C723.785 23.8268 800.796 58.9889 857.21 118.218C913.624 177.448 945.104 256.19 945.107 338.082H309.891Z" fill="white"/>
</mask>
<g mask="url(#mask0_869_146)">
<path d="M964.757 0.000366211H290.242V660.249H964.757V0.000366211Z" fill="url(#paint0_linear_869_146)"/>
</g>
<path d="M793.279 714.611C795.807 717.146 799.601 715.879 810.348 707.006C816.67 701.937 825.52 695.599 829.946 692.431C843.224 682.923 853.972 678.486 852.074 682.923C850.031 689.478 849.175 696.347 849.545 703.204C849.982 706.218 851.57 708.945 853.972 710.809C855.287 712.086 856.914 712.993 858.689 713.438C860.465 713.883 862.326 713.851 864.086 713.345C876.101 712.077 904.55 700.668 928.574 687.994C936.16 684.191 936.792 683.558 936.792 679.754C936.792 675.953 936.16 675.953 932.999 675.953C925.419 678.368 918.023 681.333 910.871 684.823C890.008 694.964 869.776 701.937 863.455 701.937C859.661 701.937 859.661 701.937 859.661 698.768C859.884 695.365 860.306 691.979 860.926 688.627C863.455 679.121 863.455 675.953 860.294 672.782C859.665 671.692 858.731 670.811 857.607 670.248C856.483 669.685 855.22 669.464 853.972 669.614C847.648 669.614 833.107 676.586 821.095 685.458C817.93 688.07 814.547 690.403 810.981 692.431C812.787 688.061 814.9 683.824 817.303 679.754C820.111 675.592 822.444 671.128 824.258 666.445C824.303 665.711 824.181 664.977 823.901 664.298C823.621 663.618 823.191 663.011 822.643 662.523C822.095 662.035 821.443 661.678 820.737 661.479C820.031 661.28 819.29 661.245 818.568 661.376C813.509 662.644 792.014 701.937 792.014 709.541C791.971 711.314 792.408 713.067 793.279 714.611ZM735.113 719.047C740.172 721.582 746.493 720.949 754.714 717.781C763.565 714.61 813.509 686.727 814.773 684.19C816.67 681.655 814.142 676.585 811.613 676.585C809.717 676.585 805.291 678.486 776.842 694.331C752.184 707.641 742.702 711.441 738.908 708.273C738.377 707.918 737.932 707.45 737.604 706.902C737.276 706.354 737.074 705.74 737.011 705.104C737.011 702.569 742.702 691.162 747.759 682.923C750.211 679.887 752.135 676.458 753.449 672.782C753.114 671.464 752.392 670.277 751.378 669.374C750.364 668.47 749.104 667.892 747.759 667.712C742.438 671.113 737.554 675.157 733.217 679.754C722.739 689.918 711.306 699.045 699.077 707.005C692.124 710.176 691.491 710.176 692.124 705.739C692.755 700.668 701.607 682.923 704.767 678.486C708.562 674.049 709.193 672.149 707.928 668.98C706.033 664.544 701.607 665.812 697.812 670.249C691.054 679.996 685.732 690.668 682.008 701.936C680.744 708.908 681.374 713.345 685.169 717.145C691.491 722.85 702.871 719.047 718.675 706.372C721.299 704.112 724.043 701.996 726.896 700.035C727.527 700.035 726.896 701.936 726.896 703.837C726.451 706.921 727.01 710.067 728.49 712.807C729.971 715.547 732.293 717.735 735.113 719.047ZM568.839 734.892C568.948 740.693 567.413 746.407 564.413 751.369C556.827 767.214 541.654 783.692 521.423 797.001C498.541 811.474 473.284 821.772 446.821 827.421C416.476 833.125 394.979 826.155 397.509 811.578C400.038 802.07 414.577 786.227 434.81 772.283C456.003 759.321 478.203 748.088 501.193 738.694C521.405 730.476 542.095 723.491 563.149 717.78C567.577 717.781 569.473 724.118 568.839 734.892ZM585.91 389.489C546.711 400.263 491.709 427.514 456.304 454.132C399.404 495.328 362.104 544.128 356.413 585.324C351.987 618.912 372.22 642.995 419.003 659.475C426.589 662.008 444.292 667.08 458.833 670.249C510.044 682.923 524.584 687.359 540.39 695.599C548.609 700.035 557.461 706.372 556.196 707.005C550.465 709.566 544.547 711.686 538.494 713.345C500.301 725.131 463.761 741.742 429.753 762.778C405.095 779.255 389.922 797.001 387.393 811.578C385.497 824.887 396.875 836.294 415.211 840.097C427.466 840.958 439.78 840.32 451.88 838.197C508.78 826.155 561.887 789.396 576.426 751.369C579.589 742.497 580.851 727.922 577.691 719.682C577.06 716.513 575.794 713.978 576.426 713.345C576.426 713.345 584.015 711.441 593.497 708.908C602.979 707.005 626.372 700.668 645.971 694.964C676.949 686.727 685.17 684.19 697.812 681.655C698.677 681.535 699.491 681.174 700.162 680.614C700.832 680.054 701.333 679.317 701.607 678.486C702.872 675.953 702.872 675.318 700.973 673.416C697.812 669.614 694.652 670.249 652.294 681.655C632.062 687.359 605.509 694.331 592.864 697.5L569.473 703.838L561.887 696.868C553.666 689.263 535.333 680.388 518.262 674.685C511.94 672.15 491.077 667.08 472.11 662.009C422.164 649.968 407.625 644.899 391.818 634.123C382.509 628.881 375.011 620.924 370.321 611.308C367.235 605.937 365.909 599.73 366.529 593.562C366.246 586.191 367.539 578.844 370.321 572.015C377.276 552.367 388.024 534.621 406.991 512.439C429.657 487.913 455.367 466.4 483.491 448.429C508.856 433.444 535.267 420.312 562.518 409.137C636.488 381.25 689.595 390.758 692.755 431.951C694.02 446.528 687.065 466.81 671.892 491.525C652.925 521.947 615.625 562.508 598.554 570.113C595.954 571.376 593.599 573.093 591.6 575.184C590.967 577.717 594.128 582.789 597.288 582.789C602.979 582.789 616.256 572.648 634.591 554.903C673.157 515.61 700.973 469.346 703.502 440.192C704.43 429.924 702.277 419.613 697.321 410.58C692.365 401.547 684.831 394.203 675.684 389.49C663.572 384.051 650.383 381.45 637.119 381.886C619.786 382.108 602.562 384.665 585.91 389.489Z" fill="#D2AE6D"/>
<path d="M962.679 1028.56H932.419V1016.09H958.947V1012.92H932.419V989.114H962.679V985.946H928.439V1031.87H962.679V1028.56ZM864.188 1028.49C850.758 1028.49 839.899 1019.66 839.899 1008.74C839.899 997.814 850.758 988.982 864.188 988.982C869.456 988.945 874.627 990.393 879.112 993.161L881.516 990.667C876.285 987.437 870.25 985.755 864.107 985.813C851.671 985.813 840.729 992.421 837.162 1002.13C833.599 1011.84 838.241 1022.29 848.604 1027.89C853.842 1030.63 859.707 1031.95 865.614 1031.72C871.52 1031.48 877.261 1029.7 882.264 1026.54L879.776 1024.05C875.189 1027.03 869.827 1028.6 864.356 1028.56L864.188 1028.49ZM754.508 994.646L789.741 1032V985.813H785.847V1022.56L750.612 985.206V1031.73H754.509L754.508 994.646ZM704.269 1028.56H674.007V1016.09H700.538V1012.92H674.007V989.114H704.269V985.946H670.029V1031.87H704.269L704.269 1028.56ZM595.498 1028.56H588.12V988.982H595.498C608.928 988.982 619.789 997.814 619.789 1008.74C619.789 1019.73 608.928 1028.56 595.498 1028.56ZM595.498 985.813H584.224V1031.73H595.498C611.085 1031.73 623.686 1021.48 623.686 1008.81C623.686 996.061 611.085 985.813 595.498 985.813ZM537.881 1031.73V985.813H533.984V1031.73H537.881ZM471.392 1028.49C469.591 1028.52 467.802 1028.19 466.135 1027.5C464.467 1026.82 462.956 1025.8 461.693 1024.52L458.542 1026.47C460.215 1028.18 462.218 1029.52 464.427 1030.43C466.637 1031.33 469.006 1031.78 471.392 1031.73H471.558C474.836 1031.92 478.092 1031.08 480.881 1029.34C483.669 1027.61 485.856 1025.05 487.143 1022.02C487.975 1019.07 487.669 1015.91 486.287 1013.18C484.905 1010.44 482.547 1008.33 479.682 1007.26L466.75 1001.19C465.327 1000.65 464.156 999.594 463.466 998.234C462.776 996.875 462.617 995.307 463.018 993.836C463.649 992.334 464.73 991.067 466.111 990.209C467.493 989.351 469.107 988.946 470.728 989.049H471.973C473.286 989.01 474.59 989.276 475.783 989.826C476.976 990.376 478.027 991.194 478.853 992.218L482.251 990.6C481.026 989.057 479.459 987.822 477.675 986.991C475.891 986.16 473.939 985.757 471.973 985.813H470.728C468.301 985.682 465.893 986.304 463.831 987.595C461.769 988.885 460.154 990.782 459.206 993.025C458.587 995.203 458.806 997.533 459.82 999.556C460.833 1001.58 462.566 1003.15 464.677 1003.95L477.609 1010.02C479.783 1010.81 481.578 1012.4 482.638 1014.46C483.697 1016.52 483.944 1018.91 483.329 1021.15C482.374 1023.43 480.739 1025.36 478.646 1026.68C476.554 1027.99 474.108 1028.63 471.641 1028.49L471.392 1028.49ZM412.199 1028.56H381.94V1016.09H408.468V1012.92H381.94V989.114H412.199V985.946H377.959V1031.87H412.199L412.199 1028.56ZM296.217 989.049H313.045C321.169 989.049 327.719 994.375 327.719 1000.98C327.719 1007.59 321.169 1012.92 313.045 1012.92H296.216L296.217 989.049ZM296.217 1031.73V1016.09H310.972L325.649 1031.73H330.622L315.782 1015.89C325.4 1014.74 332.28 1007.73 331.533 999.837C330.786 991.947 322.746 985.813 313.045 985.813H292.319V1031.73H296.217Z" fill="white"/>
<path fill-rule="evenodd" clip-rule="evenodd" d="M1237.13 910.597C1237.17 910.885 1237.15 911.179 1237.06 911.456C1236.98 911.734 1236.83 911.987 1236.63 912.197C1236.42 912.406 1236.18 912.565 1235.9 912.662C1235.63 912.759 1235.34 912.791 1235.05 912.755H1222.16C1221.88 912.79 1221.58 912.759 1221.31 912.662C1221.04 912.565 1220.79 912.405 1220.59 912.196C1220.38 911.987 1220.23 911.733 1220.15 911.456C1220.06 911.178 1220.04 910.884 1220.08 910.597V849.981C1220.08 846.531 1219.39 844.446 1218.01 843.726C1215.71 843.098 1213.32 842.879 1210.94 843.08H1149.01C1146.64 842.879 1144.25 843.098 1141.95 843.726C1140.56 844.445 1139.87 846.53 1139.87 849.981V910.597C1139.92 910.885 1139.89 911.179 1139.81 911.456C1139.72 911.734 1139.57 911.987 1139.37 912.197C1139.17 912.406 1138.92 912.565 1138.64 912.662C1138.37 912.759 1138.08 912.791 1137.79 912.755H1124.91C1123.52 912.755 1122.83 912.035 1122.83 910.597V794.328C1122.83 786.707 1121.86 781.853 1119.92 779.767C1117.98 777.682 1113.34 776.136 1106 775.13C1105.73 775.125 1105.46 775.064 1105.22 774.95C1104.97 774.836 1104.76 774.672 1104.58 774.469C1104.4 774.266 1104.27 774.027 1104.19 773.769C1104.12 773.512 1104.09 773.24 1104.13 772.973C1104.13 771.247 1104.89 770.384 1106.41 770.383H1137.79C1138.08 770.347 1138.37 770.379 1138.64 770.475C1138.92 770.572 1139.17 770.732 1139.37 770.941C1139.57 771.151 1139.72 771.404 1139.81 771.682C1139.89 771.96 1139.92 772.254 1139.87 772.541V827.547C1139.87 830.999 1140.56 833.084 1141.95 833.803C1144.25 834.431 1146.64 834.65 1149.01 834.449H1210.94C1213.32 834.65 1215.71 834.432 1218.01 833.803C1219.39 833.084 1220.08 830.999 1220.08 827.513V772.541C1220.04 772.254 1220.06 771.96 1220.15 771.682C1220.23 771.405 1220.38 771.151 1220.59 770.942C1220.79 770.732 1221.04 770.573 1221.31 770.476C1221.58 770.379 1221.87 770.347 1222.16 770.383H1252.71C1254.24 770.383 1255 771.246 1255 772.973C1255.03 773.238 1255.01 773.507 1254.93 773.762C1254.86 774.018 1254.73 774.255 1254.56 774.458C1254.38 774.661 1254.17 774.826 1253.93 774.942C1253.69 775.057 1253.43 775.122 1253.16 775.13C1248.76 775.542 1244.49 776.864 1240.62 779.013C1238.3 781.17 1237.13 785.483 1237.13 791.956L1237.13 910.597ZM891.947 916.206C871.162 916.206 853.913 911.388 840.2 901.752C820.527 887.948 810.69 868.175 810.688 842.433C810.688 819.135 818.932 800.511 835.42 786.563C851.601 773.241 872.058 766.266 892.985 766.933C905.398 767.297 917.733 769.034 929.767 772.111C930.875 772.399 932.019 772.686 933.197 772.973C933.744 773.089 934.26 773.323 934.708 773.658C935.157 773.993 935.527 774.421 935.795 774.913C935.795 775.922 935.864 777.36 936.002 779.228C936.279 782.68 936.556 786.347 936.833 790.231C937.802 800.151 938.287 804.537 938.287 803.388C938.287 805.114 937.318 805.977 935.38 805.978C934.801 806.038 934.219 805.901 933.728 805.587C933.238 805.274 932.867 804.803 932.678 804.252C931.984 801.95 930.806 798.498 929.145 793.896C922.355 780.379 909.401 773.62 890.283 773.62C871.717 773.62 857.17 779.803 846.642 792.17C836.527 803.962 831.469 819.638 831.47 839.197C831.47 859.473 836.805 876.083 847.474 889.027C853.009 895.738 860.013 901.078 867.943 904.632C875.872 908.186 884.513 909.858 893.192 909.518C900.812 909.846 908.38 908.118 915.106 904.514C921.832 900.909 927.47 895.561 931.43 889.027C932.538 886.869 934.201 883.706 936.419 879.536C936.616 879.048 936.965 878.637 937.415 878.365C937.864 878.092 938.389 877.973 938.912 878.025C940.852 878.025 941.821 878.96 941.82 880.829C941.82 881.116 941.405 882.986 940.575 886.438C939.328 891.614 938.15 895.784 937.041 898.948C934.963 905.134 933.024 908.585 931.222 909.303C918.682 914.068 905.356 916.41 891.947 916.206ZM591.028 793.25H590.611C589.227 795.839 585.729 805.079 580.117 820.968C576.8 829.458 573.99 838.138 571.702 846.962C571.702 848.112 572.741 848.687 574.819 848.688H603.288C606.475 848.688 608.068 847.897 608.068 846.316C606.019 837.624 603.487 829.054 600.485 820.646C595.428 804.971 592.276 795.839 591.028 793.25ZM292.189 912.754C290.803 912.754 290.11 912.035 290.111 910.597L290.318 791.956C290.59 788.401 289.946 784.835 288.448 781.6C287.497 780.141 286.244 778.904 284.774 777.974C283.304 777.043 281.651 776.441 279.928 776.209C278.404 775.922 276.88 775.598 275.356 775.238C273.832 774.878 273.071 774.051 273.071 772.757C273.071 770.743 273.832 769.736 275.356 769.736C277.712 769.736 281.315 769.844 286.163 770.061C291.01 770.276 294.681 770.383 297.176 770.383H344.974C347.052 770.383 350.273 770.275 354.636 770.061C359.003 769.844 362.295 769.736 364.51 769.736C365.479 769.736 366.207 770.347 366.693 771.569C367.596 775.576 368.151 779.654 368.354 783.758C368.977 790.625 369.29 795.082 369.29 797.097C369.336 797.461 369.298 797.83 369.177 798.175C369.057 798.521 368.857 798.834 368.595 799.088C368.333 799.343 368.014 799.533 367.666 799.643C367.318 799.753 366.948 799.78 366.588 799.722C365.916 799.723 365.265 799.485 364.751 799.051C364.237 798.617 363.893 798.014 363.781 797.35C363.297 795.766 362.846 794.256 362.43 792.817C361.588 789.391 359.857 786.249 357.411 783.711C354.966 781.173 351.894 779.329 348.508 778.366C342.617 777.271 336.622 776.837 330.636 777.07H312.139C309.784 777.07 308.33 777.646 307.776 778.796C307.19 780.454 306.977 782.222 307.152 783.972V828.841C307.152 831.862 307.498 833.624 308.191 834.127C310.047 834.823 312.038 835.081 314.01 834.881H353.287C354.674 834.881 355.366 835.889 355.366 837.903C355.366 840.922 354.534 842.431 352.871 842.432H314.01C312.184 842.241 310.338 842.462 308.608 843.079C307.636 843.654 307.151 845.38 307.152 848.256V879.967C307.152 891.182 308.434 898.192 310.997 900.998C313.559 903.802 332.367 905.204 367.419 905.203C371.991 905.203 373.654 905.131 372.406 904.988C374.623 905.276 375.731 906.139 375.73 907.578C375.645 908.723 375.289 909.832 374.691 910.812C373.999 912.107 373.238 912.755 372.406 912.754L292.189 912.754ZM35.1208 845.237V877.161C34.6387 884.333 35.6287 891.528 38.0296 898.301C40.9418 903.909 46.8995 906.714 55.9027 906.714C77.6549 906.714 88.5308 896.647 88.5304 876.514C88.5304 864.003 84.5823 854.583 76.6862 848.256C68.1228 842.082 57.7066 839.037 47.1746 839.629C44.5407 839.564 41.9053 839.636 39.2787 839.843C38.0401 840.061 36.9273 840.736 36.1583 841.733C35.3893 842.731 35.0193 843.98 35.1208 845.237ZM35.1208 783.326V827.116C34.8934 828.909 35.2583 830.728 36.1594 832.295C37.7187 833.237 39.5518 833.617 41.356 833.374C53.1328 833.374 61.7914 831.72 67.3319 828.412C74.816 824.241 78.5575 816.619 78.5564 805.545C78.8128 801.472 78.1414 797.394 76.5931 793.619C75.0447 789.844 72.66 786.472 69.6194 783.758C63.4683 778.605 55.5959 775.984 47.5918 776.424C44.3948 776.27 41.1953 776.671 38.1347 777.61C36.1266 778.402 35.1219 780.307 35.1208 783.326ZM598.509 766.933H598.49C597.921 767.029 597.408 767.337 597.056 767.796C594.457 770.467 591.522 772.787 588.326 774.699C587.95 774.862 587.63 775.134 587.408 775.48C587.186 775.826 587.072 776.23 587.079 776.641C586.304 781.358 585.05 785.983 583.339 790.446C567.267 833.875 552.374 873.997 538.66 910.812C538.66 912.108 539.421 912.755 540.944 912.754C546.21 912.754 549.05 912.251 549.464 911.244C551.819 905.348 553.689 900.387 555.075 896.361C562.557 875.22 566.437 864.29 566.715 863.571C567.17 861.74 567.981 860.017 569.102 858.502C570.459 857.535 572.127 857.112 573.779 857.316H606.615C608.24 857.225 609.844 857.718 611.139 858.707C612.434 859.696 613.335 861.115 613.68 862.709L629.057 911.244C629.131 911.682 629.362 912.077 629.707 912.356C630.052 912.634 630.487 912.776 630.93 912.754H645.684C647.069 912.754 647.761 912.107 647.761 910.812C647.761 910.525 640.834 889.817 626.98 848.688C612.573 805.69 604.745 782.034 603.496 777.72C602.942 775.705 602.388 773.692 601.836 771.68C600.726 768.516 599.618 766.933 598.509 766.933ZM0 774.266C0 772.254 2.00938 771.032 6.02815 770.6H14.3413C23.4837 770.024 34.0819 769.736 46.1359 769.736C79.9426 769.736 96.8452 780.738 96.8435 802.741C96.8435 815.397 89.7773 825.248 75.645 832.294C75.7846 833.875 77.1007 834.953 79.5933 835.528C86.6938 837.54 93.0628 841.566 97.9331 847.123C102.803 852.679 105.967 859.529 107.043 866.847C108.119 874.164 107.062 881.638 103.999 888.367C100.935 895.096 95.9964 900.793 89.7769 904.773C78.2475 911.004 65.2489 913.986 52.1638 913.401C51.0554 913.401 44.1282 913.257 31.3821 912.969C28.8872 912.969 25.1464 912.898 20.1598 912.754C19.8773 912.766 19.5955 912.718 19.3329 912.613C19.0703 912.508 18.833 912.348 18.6366 912.144C18.4402 911.941 18.2892 911.697 18.1935 911.43C18.0979 911.164 18.0597 910.88 18.0817 910.597V798.425C18.2173 794.251 18.0782 790.071 17.6652 785.915C17.3321 783.952 16.3895 782.145 14.9717 780.75C13.554 779.356 11.7334 778.445 9.76931 778.149C7.82862 777.862 5.81932 777.575 3.7414 777.287C1.24831 776.855 0.00117681 775.848 0 774.266Z" fill="white"/>
<defs>
<linearGradient id="paint0_linear_869_146" x1="416.425" y1="108.181" x2="855.846" y2="567.98" gradientUnits="userSpaceOnUse">
<stop stop-color="#F5D9AE"/>
<stop offset="1" stop-color="#EDC07D"/>
</linearGradient>
</defs>
</svg> -->
<svg width="1255" height="1032" viewBox="0 0 1255 1032" fill="none" xmlns="http://www.w3.org/2000/svg">
<g clip-path="url(#clip0_869_145)">
<path fill-rule="evenodd" clip-rule="evenodd" d="M309.891 343.629H290.242C290.231 365.253 292.278 386.828 296.356 408.062H938.603C937.115 415.317 935.386 422.477 933.417 429.542H301.226C307.043 451.79 315.123 473.381 325.341 493.974H907.541C903.612 501.308 899.409 508.467 894.934 515.451H336.983C350.776 538.827 367.318 560.46 386.253 579.884H840.409C831.996 587.509 823.183 594.678 814.008 601.361H409.222C443.16 630.304 482.492 652.206 524.937 665.796H730.061C747.884 660.097 765.199 652.912 781.826 644.317H522.839C506.244 638.511 490.161 631.327 474.758 622.84H817.725C844.046 604.78 867.694 583.089 887.971 558.407H393.048C386.768 551.52 380.788 544.361 375.108 536.931H904.231C918.255 516.798 930.045 495.192 939.391 472.495H336.987C333.883 465.465 331.025 458.306 328.413 451.018H947.387C954.378 430.076 959.292 408.494 962.059 386.585H312.758C311.808 379.497 311.089 372.337 310.601 365.106H964.088C964.531 358.003 964.754 350.844 964.757 343.629C964.754 256.513 931.206 172.76 871.108 109.833C811.01 46.9061 729.001 9.66261 642.179 5.86804C555.358 2.07348 470.426 32.0207 405.093 89.4656C339.759 146.91 299.067 227.419 291.501 314.204H311.228C318.781 232.663 357.385 157.174 419.018 103.425C480.652 49.6751 560.575 21.7979 642.18 25.586C723.785 29.3742 800.796 64.5363 857.21 123.766C913.625 182.995 945.104 261.737 945.107 343.629H309.891Z" fill="white"/>
<mask id="mask0_869_145" style="mask-type:luminance" maskUnits="userSpaceOnUse" x="290" y="-1" width="675" height="662">
<path d="M309.891 338.082H290.242C290.231 359.706 292.278 381.281 296.356 402.515H938.603C937.115 409.769 935.386 416.929 933.417 423.994H301.226C307.043 446.243 315.123 467.834 325.341 488.427H907.541C903.612 495.76 899.409 502.919 894.934 509.904H336.983C350.776 533.28 367.318 554.912 386.253 574.336H840.409C831.995 581.961 823.182 589.13 814.008 595.816H409.222C443.161 624.757 482.493 646.657 524.937 660.248H730.061C747.884 654.549 765.199 647.364 781.826 638.769H522.839C506.244 632.964 490.161 625.78 474.758 617.292H817.725C844.046 599.232 867.694 577.541 887.971 552.859H393.048C386.768 545.972 380.788 538.813 375.108 531.383H904.231C918.255 511.25 930.044 489.644 939.391 466.948H336.987C333.883 459.917 331.025 452.758 328.413 445.471H947.387C954.378 424.529 959.292 402.947 962.059 381.038H312.758C311.808 373.949 311.089 366.789 310.601 359.559H964.088C964.531 352.458 964.754 345.299 964.757 338.082C964.754 250.966 931.206 167.212 871.108 104.286C811.01 41.3587 729.001 4.11524 642.179 0.320679C555.358 -3.47388 470.426 26.4733 405.093 83.9182C339.759 141.363 299.067 221.871 291.501 308.657H311.228C318.781 227.116 357.385 151.627 419.018 97.8774C480.652 44.1278 560.575 16.2505 642.18 20.0387C723.785 23.8268 800.796 58.9889 857.21 118.218C913.624 177.448 945.104 256.19 945.107 338.082H309.891Z" fill="white"/>
</mask>
<g mask="url(#mask0_869_145)">
<path d="M964.757 0.000366211H290.242V660.249H964.757V0.000366211Z" fill="url(#paint0_linear_869_145)"/>
</g>
<path d="M793.279 714.611C795.807 717.146 799.601 715.879 810.348 707.006C816.67 701.937 825.52 695.599 829.946 692.431C843.224 682.923 853.972 678.486 852.074 682.923C850.031 689.478 849.175 696.347 849.545 703.204C849.982 706.218 851.57 708.945 853.972 710.809C855.287 712.086 856.914 712.993 858.689 713.438C860.465 713.883 862.326 713.851 864.086 713.345C876.101 712.077 904.55 700.668 928.574 687.994C936.16 684.191 936.792 683.558 936.792 679.754C936.792 675.953 936.16 675.953 932.999 675.953C925.419 678.368 918.023 681.333 910.871 684.823C890.008 694.964 869.776 701.937 863.455 701.937C859.661 701.937 859.661 701.937 859.661 698.768C859.884 695.365 860.306 691.979 860.926 688.627C863.455 679.121 863.455 675.953 860.294 672.782C859.665 671.692 858.731 670.811 857.607 670.248C856.483 669.685 855.22 669.464 853.972 669.614C847.648 669.614 833.107 676.586 821.095 685.458C817.93 688.07 814.547 690.403 810.981 692.431C812.787 688.061 814.9 683.824 817.303 679.754C820.111 675.592 822.444 671.128 824.258 666.445C824.303 665.711 824.181 664.977 823.901 664.298C823.621 663.618 823.191 663.011 822.643 662.523C822.095 662.035 821.443 661.678 820.737 661.479C820.031 661.28 819.29 661.245 818.568 661.376C813.509 662.644 792.014 701.937 792.014 709.541C791.971 711.314 792.408 713.067 793.279 714.611ZM735.113 719.047C740.172 721.582 746.493 720.949 754.714 717.781C763.565 714.61 813.509 686.727 814.773 684.19C816.67 681.655 814.142 676.585 811.613 676.585C809.717 676.585 805.291 678.486 776.842 694.331C752.184 707.641 742.702 711.441 738.908 708.273C738.377 707.918 737.932 707.45 737.604 706.902C737.276 706.354 737.074 705.74 737.011 705.104C737.011 702.569 742.702 691.162 747.759 682.923C750.211 679.887 752.135 676.458 753.449 672.782C753.114 671.464 752.392 670.277 751.378 669.374C750.364 668.47 749.104 667.892 747.759 667.712C742.438 671.113 737.554 675.157 733.217 679.754C722.739 689.918 711.306 699.045 699.077 707.005C692.124 710.176 691.491 710.176 692.124 705.739C692.755 700.668 701.607 682.923 704.767 678.486C708.562 674.049 709.193 672.149 707.928 668.98C706.033 664.544 701.607 665.812 697.812 670.249C691.054 679.996 685.732 690.668 682.008 701.936C680.744 708.908 681.374 713.345 685.169 717.145C691.491 722.85 702.871 719.047 718.675 706.372C721.299 704.112 724.043 701.996 726.896 700.035C727.527 700.035 726.896 701.936 726.896 703.837C726.451 706.921 727.01 710.067 728.49 712.807C729.971 715.547 732.293 717.735 735.113 719.047ZM568.839 734.892C568.948 740.693 567.413 746.407 564.413 751.369C556.827 767.214 541.654 783.692 521.423 797.001C498.541 811.474 473.284 821.772 446.821 827.421C416.476 833.125 394.979 826.155 397.509 811.578C400.038 802.07 414.577 786.227 434.81 772.283C456.003 759.321 478.203 748.088 501.193 738.694C521.405 730.476 542.095 723.491 563.149 717.78C567.577 717.781 569.473 724.118 568.839 734.892ZM585.91 389.489C546.711 400.263 491.709 427.514 456.304 454.132C399.404 495.328 362.104 544.128 356.413 585.324C351.987 618.912 372.22 642.995 419.003 659.475C426.589 662.008 444.292 667.08 458.833 670.249C510.044 682.923 524.584 687.359 540.39 695.599C548.609 700.035 557.461 706.372 556.196 707.005C550.465 709.566 544.547 711.686 538.494 713.345C500.301 725.131 463.761 741.742 429.753 762.778C405.095 779.255 389.922 797.001 387.393 811.578C385.497 824.887 396.875 836.294 415.211 840.097C427.466 840.958 439.78 840.32 451.88 838.197C508.78 826.155 561.887 789.396 576.426 751.369C579.589 742.497 580.851 727.922 577.691 719.682C577.06 716.513 575.794 713.978 576.426 713.345C576.426 713.345 584.015 711.441 593.497 708.908C602.979 707.005 626.372 700.668 645.971 694.964C676.949 686.727 685.17 684.19 697.812 681.655C698.677 681.535 699.491 681.174 700.162 680.614C700.832 680.054 701.333 679.317 701.607 678.486C702.872 675.953 702.872 675.318 700.973 673.416C697.812 669.614 694.652 670.249 652.294 681.655C632.062 687.359 605.509 694.331 592.864 697.5L569.473 703.838L561.887 696.868C553.666 689.263 535.333 680.388 518.262 674.685C511.94 672.15 491.077 667.08 472.11 662.009C422.164 649.968 407.625 644.899 391.818 634.123C382.509 628.881 375.011 620.924 370.321 611.308C367.235 605.937 365.909 599.73 366.529 593.562C366.246 586.191 367.539 578.844 370.321 572.015C377.276 552.367 388.024 534.621 406.991 512.439C429.657 487.913 455.367 466.4 483.491 448.429C508.856 433.444 535.267 420.312 562.518 409.137C636.488 381.25 689.595 390.758 692.755 431.951C694.02 446.528 687.065 466.81 671.892 491.525C652.925 521.947 615.625 562.508 598.554 570.113C595.954 571.376 593.599 573.093 591.6 575.184C590.967 577.717 594.128 582.789 597.288 582.789C602.979 582.789 616.256 572.648 634.591 554.903C673.157 515.61 700.973 469.346 703.502 440.192C704.43 429.924 702.277 419.613 697.321 410.58C692.365 401.547 684.831 394.203 675.684 389.49C663.572 384.051 650.383 381.45 637.119 381.886C619.786 382.108 602.562 384.665 585.91 389.489Z" fill="#D2AE6D"/>
<path d="M962.679 1028.56H932.419V1016.09H958.947V1012.92H932.419V989.114H962.679V985.946H928.439V1031.87H962.679V1028.56ZM864.188 1028.49C850.758 1028.49 839.899 1019.66 839.899 1008.74C839.899 997.814 850.758 988.982 864.188 988.982C869.456 988.945 874.627 990.393 879.112 993.161L881.516 990.667C876.285 987.437 870.25 985.755 864.107 985.813C851.671 985.813 840.729 992.421 837.162 1002.13C833.599 1011.84 838.241 1022.29 848.604 1027.89C853.842 1030.63 859.707 1031.95 865.614 1031.72C871.52 1031.48 877.261 1029.7 882.264 1026.54L879.776 1024.05C875.189 1027.03 869.827 1028.6 864.356 1028.56L864.188 1028.49ZM754.508 994.646L789.741 1032V985.813H785.847V1022.56L750.612 985.206V1031.73H754.509L754.508 994.646ZM704.269 1028.56H674.007V1016.09H700.538V1012.92H674.007V989.114H704.269V985.946H670.029V1031.87H704.269L704.269 1028.56ZM595.498 1028.56H588.12V988.982H595.498C608.928 988.982 619.789 997.814 619.789 1008.74C619.789 1019.73 608.928 1028.56 595.498 1028.56ZM595.498 985.813H584.224V1031.73H595.498C611.085 1031.73 623.686 1021.48 623.686 1008.81C623.686 996.061 611.085 985.813 595.498 985.813ZM537.881 1031.73V985.813H533.984V1031.73H537.881ZM471.392 1028.49C469.591 1028.52 467.802 1028.19 466.135 1027.5C464.467 1026.82 462.956 1025.8 461.693 1024.52L458.542 1026.47C460.215 1028.18 462.218 1029.52 464.427 1030.43C466.637 1031.33 469.006 1031.78 471.392 1031.73H471.558C474.836 1031.92 478.092 1031.08 480.881 1029.34C483.669 1027.61 485.856 1025.05 487.143 1022.02C487.975 1019.07 487.669 1015.91 486.287 1013.18C484.905 1010.44 482.547 1008.33 479.682 1007.26L466.75 1001.19C465.327 1000.65 464.156 999.594 463.466 998.234C462.776 996.875 462.617 995.307 463.018 993.836C463.649 992.334 464.73 991.067 466.111 990.209C467.493 989.351 469.107 988.946 470.728 989.049H471.973C473.286 989.01 474.59 989.276 475.783 989.826C476.976 990.376 478.027 991.194 478.853 992.218L482.251 990.6C481.026 989.057 479.459 987.822 477.675 986.991C475.891 986.16 473.939 985.757 471.973 985.813H470.728C468.301 985.682 465.893 986.304 463.831 987.595C461.769 988.885 460.154 990.782 459.206 993.025C458.587 995.203 458.806 997.533 459.82 999.556C460.833 1001.58 462.566 1003.15 464.677 1003.95L477.609 1010.02C479.783 1010.81 481.578 1012.4 482.638 1014.46C483.697 1016.52 483.944 1018.91 483.329 1021.15C482.374 1023.43 480.739 1025.36 478.646 1026.68C476.554 1027.99 474.108 1028.63 471.641 1028.49L471.392 1028.49ZM412.199 1028.56H381.94V1016.09H408.468V1012.92H381.94V989.114H412.199V985.946H377.959V1031.87H412.199L412.199 1028.56ZM296.217 989.049H313.045C321.169 989.049 327.719 994.375 327.719 1000.98C327.719 1007.59 321.169 1012.92 313.045 1012.92H296.216L296.217 989.049ZM296.217 1031.73V1016.09H310.972L325.649 1031.73H330.622L315.782 1015.89C325.4 1014.74 332.28 1007.73 331.533 999.837C330.786 991.947 322.746 985.813 313.045 985.813H292.319V1031.73H296.217Z" fill="white"/>
<path fill-rule="evenodd" clip-rule="evenodd" d="M1237.13 910.597C1237.17 910.885 1237.15 911.179 1237.06 911.456C1236.98 911.734 1236.83 911.987 1236.63 912.197C1236.42 912.406 1236.18 912.565 1235.9 912.662C1235.63 912.759 1235.34 912.791 1235.05 912.755H1222.16C1221.88 912.79 1221.58 912.759 1221.31 912.662C1221.04 912.565 1220.79 912.405 1220.59 912.196C1220.38 911.987 1220.23 911.733 1220.15 911.456C1220.06 911.178 1220.04 910.884 1220.08 910.597V849.981C1220.08 846.531 1219.39 844.446 1218.01 843.726C1215.71 843.098 1213.32 842.879 1210.94 843.08H1149.01C1146.64 842.879 1144.25 843.098 1141.95 843.726C1140.56 844.445 1139.87 846.53 1139.87 849.981V910.597C1139.92 910.885 1139.89 911.179 1139.81 911.456C1139.72 911.734 1139.57 911.987 1139.37 912.197C1139.17 912.406 1138.92 912.565 1138.64 912.662C1138.37 912.759 1138.08 912.791 1137.79 912.755H1124.91C1123.52 912.755 1122.83 912.035 1122.83 910.597V794.328C1122.83 786.707 1121.86 781.853 1119.92 779.767C1117.98 777.682 1113.34 776.136 1106 775.13C1105.73 775.125 1105.46 775.064 1105.22 774.95C1104.97 774.836 1104.76 774.672 1104.58 774.469C1104.4 774.266 1104.27 774.027 1104.19 773.769C1104.12 773.512 1104.09 773.24 1104.13 772.973C1104.13 771.247 1104.89 770.384 1106.41 770.383H1137.79C1138.08 770.347 1138.37 770.379 1138.64 770.475C1138.92 770.572 1139.17 770.732 1139.37 770.941C1139.57 771.151 1139.72 771.404 1139.81 771.682C1139.89 771.96 1139.92 772.254 1139.87 772.541V827.547C1139.87 830.999 1140.56 833.084 1141.95 833.803C1144.25 834.431 1146.64 834.65 1149.01 834.449H1210.94C1213.32 834.65 1215.71 834.432 1218.01 833.803C1219.39 833.084 1220.08 830.999 1220.08 827.513V772.541C1220.04 772.254 1220.06 771.96 1220.15 771.682C1220.23 771.405 1220.38 771.151 1220.59 770.942C1220.79 770.732 1221.04 770.573 1221.31 770.476C1221.58 770.379 1221.87 770.347 1222.16 770.383H1252.71C1254.24 770.383 1255 771.246 1255 772.973C1255.03 773.238 1255.01 773.507 1254.93 773.762C1254.86 774.018 1254.73 774.255 1254.56 774.458C1254.38 774.661 1254.17 774.826 1253.93 774.942C1253.69 775.057 1253.43 775.122 1253.16 775.13C1248.76 775.542 1244.49 776.864 1240.62 779.013C1238.3 781.17 1237.13 785.483 1237.13 791.956L1237.13 910.597ZM891.947 916.206C871.162 916.206 853.913 911.388 840.2 901.752C820.527 887.948 810.69 868.175 810.688 842.433C810.688 819.135 818.932 800.511 835.42 786.563C851.601 773.241 872.058 766.266 892.985 766.933C905.398 767.297 917.733 769.034 929.767 772.111C930.875 772.399 932.019 772.686 933.197 772.973C933.744 773.089 934.26 773.323 934.708 773.658C935.157 773.993 935.527 774.421 935.795 774.913C935.795 775.922 935.864 777.36 936.002 779.228C936.279 782.68 936.556 786.347 936.833 790.231C937.802 800.151 938.287 804.537 938.287 803.388C938.287 805.114 937.318 805.977 935.38 805.978C934.801 806.038 934.219 805.901 933.728 805.587C933.238 805.274 932.867 804.803 932.678 804.252C931.984 801.95 930.806 798.498 929.145 793.896C922.355 780.379 909.401 773.62 890.283 773.62C871.717 773.62 857.17 779.803 846.642 792.17C836.527 803.962 831.469 819.638 831.47 839.197C831.47 859.473 836.805 876.083 847.474 889.027C853.009 895.738 860.013 901.078 867.943 904.632C875.872 908.186 884.513 909.858 893.192 909.518C900.812 909.846 908.38 908.118 915.106 904.514C921.832 900.909 927.47 895.561 931.43 889.027C932.538 886.869 934.201 883.706 936.419 879.536C936.616 879.048 936.965 878.637 937.415 878.365C937.864 878.092 938.389 877.973 938.912 878.025C940.852 878.025 941.821 878.96 941.82 880.829C941.82 881.116 941.405 882.986 940.575 886.438C939.328 891.614 938.15 895.784 937.041 898.948C934.963 905.134 933.024 908.585 931.222 909.303C918.682 914.068 905.356 916.41 891.947 916.206ZM591.028 793.25H590.611C589.227 795.839 585.729 805.079 580.117 820.968C576.8 829.458 573.99 838.138 571.702 846.962C571.702 848.112 572.741 848.687 574.819 848.688H603.288C606.475 848.688 608.068 847.897 608.068 846.316C606.019 837.624 603.487 829.054 600.485 820.646C595.428 804.971 592.276 795.839 591.028 793.25ZM292.189 912.754C290.803 912.754 290.11 912.035 290.111 910.597L290.318 791.956C290.59 788.401 289.946 784.835 288.448 781.6C287.497 780.141 286.244 778.904 284.774 777.974C283.304 777.043 281.651 776.441 279.928 776.209C278.404 775.922 276.88 775.598 275.356 775.238C273.832 774.878 273.071 774.051 273.071 772.757C273.071 770.743 273.832 769.736 275.356 769.736C277.712 769.736 281.315 769.844 286.163 770.061C291.01 770.276 294.681 770.383 297.176 770.383H344.974C347.052 770.383 350.273 770.275 354.636 770.061C359.003 769.844 362.295 769.736 364.51 769.736C365.479 769.736 366.207 770.347 366.693 771.569C367.596 775.576 368.151 779.654 368.354 783.758C368.977 790.625 369.29 795.082 369.29 797.097C369.336 797.461 369.298 797.83 369.177 798.175C369.057 798.521 368.857 798.834 368.595 799.088C368.333 799.343 368.014 799.533 367.666 799.643C367.318 799.753 366.948 799.78 366.588 799.722C365.916 799.723 365.265 799.485 364.751 799.051C364.237 798.617 363.893 798.014 363.781 797.35C363.297 795.766 362.846 794.256 362.43 792.817C361.588 789.391 359.857 786.249 357.411 783.711C354.966 781.173 351.894 779.329 348.508 778.366C342.617 777.271 336.622 776.837 330.636 777.07H312.139C309.784 777.07 308.33 777.646 307.776 778.796C307.19 780.454 306.977 782.222 307.152 783.972V828.841C307.152 831.862 307.498 833.624 308.191 834.127C310.047 834.823 312.038 835.081 314.01 834.881H353.287C354.674 834.881 355.366 835.889 355.366 837.903C355.366 840.922 354.534 842.431 352.871 842.432H314.01C312.184 842.241 310.338 842.462 308.608 843.079C307.636 843.654 307.151 845.38 307.152 848.256V879.967C307.152 891.182 308.434 898.192 310.997 900.998C313.559 903.802 332.367 905.204 367.419 905.203C371.991 905.203 373.654 905.131 372.406 904.988C374.623 905.276 375.731 906.139 375.73 907.578C375.645 908.723 375.289 909.832 374.691 910.812C373.999 912.107 373.238 912.755 372.406 912.754L292.189 912.754ZM35.1208 845.237V877.161C34.6387 884.333 35.6287 891.528 38.0296 898.301C40.9418 903.909 46.8995 906.714 55.9027 906.714C77.6549 906.714 88.5308 896.647 88.5304 876.514C88.5304 864.003 84.5823 854.583 76.6862 848.256C68.1228 842.082 57.7066 839.037 47.1746 839.629C44.5407 839.564 41.9053 839.636 39.2787 839.843C38.0401 840.061 36.9273 840.736 36.1583 841.733C35.3893 842.731 35.0193 843.98 35.1208 845.237ZM35.1208 783.326V827.116C34.8934 828.909 35.2583 830.728 36.1594 832.295C37.7187 833.237 39.5518 833.617 41.356 833.374C53.1328 833.374 61.7914 831.72 67.3319 828.412C74.816 824.241 78.5575 816.619 78.5564 805.545C78.8128 801.472 78.1414 797.394 76.5931 793.619C75.0447 789.844 72.66 786.472 69.6194 783.758C63.4683 778.605 55.5959 775.984 47.5918 776.424C44.3948 776.27 41.1953 776.671 38.1347 777.61C36.1266 778.402 35.1219 780.307 35.1208 783.326ZM598.509 766.933H598.49C597.921 767.029 597.408 767.337 597.056 767.796C594.457 770.467 591.522 772.787 588.326 774.699C587.95 774.862 587.63 775.134 587.408 775.48C587.186 775.826 587.072 776.23 587.079 776.641C586.304 781.358 585.05 785.983 583.339 790.446C567.267 833.875 552.374 873.997 538.66 910.812C538.66 912.108 539.421 912.755 540.944 912.754C546.21 912.754 549.05 912.251 549.464 911.244C551.819 905.348 553.689 900.387 555.075 896.361C562.557 875.22 566.437 864.29 566.715 863.571C567.17 861.74 567.981 860.017 569.102 858.502C570.459 857.535 572.127 857.112 573.779 857.316H606.615C608.24 857.225 609.844 857.718 611.139 858.707C612.434 859.696 613.335 861.115 613.68 862.709L629.057 911.244C629.131 911.682 629.362 912.077 629.707 912.356C630.052 912.634 630.487 912.776 630.93 912.754H645.684C647.069 912.754 647.761 912.107 647.761 910.812C647.761 910.525 640.834 889.817 626.98 848.688C612.573 805.69 604.745 782.034 603.496 777.72C602.942 775.705 602.388 773.692 601.836 771.68C600.726 768.516 599.618 766.933 598.509 766.933ZM0 774.266C0 772.254 2.00938 771.032 6.02815 770.6H14.3413C23.4837 770.024 34.0819 769.736 46.1359 769.736C79.9426 769.736 96.8452 780.738 96.8435 802.741C96.8435 815.397 89.7773 825.248 75.645 832.294C75.7846 833.875 77.1007 834.953 79.5933 835.528C86.6938 837.54 93.0628 841.566 97.9331 847.123C102.803 852.679 105.967 859.529 107.043 866.847C108.119 874.164 107.062 881.638 103.999 888.367C100.935 895.096 95.9964 900.793 89.7769 904.773C78.2475 911.004 65.2489 913.986 52.1638 913.401C51.0554 913.401 44.1282 913.257 31.3821 912.969C28.8872 912.969 25.1464 912.898 20.1598 912.754C19.8773 912.766 19.5955 912.718 19.3329 912.613C19.0703 912.508 18.833 912.348 18.6366 912.144C18.4402 911.941 18.2892 911.697 18.1935 911.43C18.0979 911.164 18.0597 910.88 18.0817 910.597V798.425C18.2173 794.251 18.0782 790.071 17.6652 785.915C17.3321 783.952 16.3895 782.145 14.9717 780.75C13.554 779.356 11.7334 778.445 9.76931 778.149C7.82862 777.862 5.81932 777.575 3.7414 777.287C1.24831 776.855 0.00117681 775.848 0 774.266Z" fill="white"/>
</g>
<defs>
<linearGradient id="paint0_linear_869_145" x1="416.425" y1="108.181" x2="855.846" y2="567.98" gradientUnits="userSpaceOnUse">
<stop stop-color="#F5D9AE"/>
<stop offset="1" stop-color="#EDC07D"/>
</linearGradient>
<clipPath id="clip0_869_145">
<rect width="1255" height="1032" fill="white"/>
</clipPath>
</defs>
</svg>

