<svg width="109" height="85" viewBox="0 0 109 85" fill="none" xmlns="http://www.w3.org/2000/svg">
<path fill-rule="evenodd" clip-rule="evenodd" d="M31.6682 37.2658V64.4491C33.7948 64.4491 35.8556 64.3066 37.5043 63.6928C43.4642 61.474 45.9529 55.7039 45.8648 50.133C45.779 44.7102 43.2688 39.4761 37.8919 37.8905C36.0292 37.3413 33.9024 37.2658 31.6682 37.2658ZM35.2739 35.343H28.6028C28.4595 35.3434 28.3221 35.3996 28.2208 35.4993C28.1195 35.5989 28.0624 35.734 28.0619 35.8749V65.8399C28.0624 65.9809 28.1195 66.1159 28.2208 66.2156C28.3221 66.3153 28.4595 66.3715 28.6028 66.3719H34.3261C43.7471 66.3719 49.2532 59.0812 49.2532 50.3126C49.2532 42.1302 44.0342 35.343 35.2739 35.343ZM16.7773 48.154C16.6049 48.1545 16.4397 48.2221 16.3177 48.342C16.1958 48.4619 16.1271 48.6244 16.1266 48.7939V49.3802C16.1271 49.5498 16.1958 49.7123 16.3177 49.8322C16.4396 49.9521 16.6049 50.0197 16.7773 50.0202H22.3533V58.8436C21.4487 61.421 19.2684 64.6225 14.0142 64.7962C6.67702 64.7638 3.65553 57.0635 3.73743 50.7583C3.80941 45.2083 6.3837 39.6327 11.3844 37.6431C14.2353 36.5088 19.2739 36.4873 21.167 39.2068C21.167 39.2068 21.4659 40.0464 22.7003 40.0464H24.3251C24.3251 40.0464 25.1564 40.0835 25.1564 39.3402C25.1564 39.3402 25.231 38.7066 24.2446 37.759C21.596 35.2147 16.7452 34.5084 13.2268 34.9894C9.32385 35.523 5.92173 37.3676 3.50476 40.5423C-0.641714 45.9888 -1.20286 54.1972 2.32459 60.1128C5.65797 65.7029 12.1497 68.753 18.5456 65.9848C20.2417 65.2509 21.558 64.2139 22.3533 63.175V65.8399C22.3537 65.9809 22.4109 66.1159 22.5122 66.2156C22.6135 66.3153 22.7509 66.3714 22.8942 66.3719H25.4187C25.562 66.3714 25.6994 66.3153 25.8007 66.2156C25.902 66.1159 25.9591 65.9809 25.9596 65.8399V48.6859C25.9591 48.545 25.902 48.4099 25.8007 48.3103C25.6994 48.2106 25.562 48.1544 25.4187 48.154H16.7773Z" fill="white"/>
<mask id="mask0_106_80" style="mask-type:luminance" maskUnits="userSpaceOnUse" x="39" y="0" width="31" height="28">
<path d="M56.9056 8.45055L59.6629 5.73871V22.0096L66.1416 15.6377L60.644 10.2306V7.07618L69.3489 15.6377L56.9056 27.8759L56.9056 8.45055ZM52.4518 27.8759H56.0744V9.11584L52.4518 12.6788V27.8759ZM58.2843 5.19758V0L48.8633 9.26568V14.4633L58.2843 5.19758ZM39.1772 15.6377L47.8822 7.07618V10.2306L42.3845 15.6377L48.8633 22.0096V16.3603L51.6206 13.6485V27.8759L39.1772 15.6377Z" fill="white"/>
</mask>
<g mask="url(#mask0_106_80)">
<path d="M69.3489 0H39.1772V27.8759H69.3489V0Z" fill="white"/>
</g>
<mask id="mask1_106_80" style="mask-type:luminance" maskUnits="userSpaceOnUse" x="75" y="34" width="34" height="43">
<path d="M90.6735 34.9638H96.1674C102.151 34.9638 107.04 37.2729 107.04 44.0015C107.04 48.0865 104.835 51.7447 101.172 52.8912L108.517 64.5944C109 65.3632 108.755 65.9927 107.973 65.9927H105.658C105.481 65.9744 105.311 65.9171 105.159 65.8249C105.008 65.7328 104.879 65.6082 104.784 65.4605L96.982 53.0307C96.4679 52.2114 96.6955 51.7309 97.6258 51.6207C101.409 51.1715 103.753 48.0038 103.753 44.2202C103.753 38.7981 99.8133 36.9373 94.9918 36.9373H93.7389V65.4605C93.7385 65.6015 93.6814 65.7366 93.5801 65.8363C93.4787 65.936 93.3413 65.9923 93.198 65.9927H90.6735C90.5301 65.9923 90.3927 65.936 90.2914 65.8363C90.1901 65.7366 90.133 65.6015 90.1326 65.4605V35.496C90.133 35.355 90.19 35.2199 90.2914 35.1202C90.3927 35.0204 90.5301 34.9642 90.6735 34.9638ZM79.0307 34.8483H80.7834C82.6041 34.8535 84.3488 35.5672 85.6362 36.8334C86.9237 38.0996 87.6493 39.8155 87.6546 41.6062V66.431C87.6469 69.0244 86.596 71.5095 84.7315 73.3434C82.8669 75.1772 80.3402 76.2108 77.7033 76.2185H76.6752C76.161 76.2185 76.0826 75.2932 75.9725 74.8712L75.52 73.1364C75.3684 72.5102 75.5817 72.2696 75.5817 72.2696C76.0176 71.5807 76.7781 72.1564 77.2848 72.3899C79.1142 73.2328 81.8475 73.6621 83.0357 71.8217C83.8222 70.6037 84.0484 68.7683 84.0484 67.5202V41.8677C84.0443 40.5789 83.5486 39.3386 82.6592 38.3922C81.7698 37.4457 80.5516 36.8622 79.2456 36.7569V36.7409H79.0307C78.8558 36.7404 78.6882 36.6719 78.5646 36.5503C78.4409 36.4287 78.3712 36.2639 78.3707 36.0919V35.4974C78.3712 35.3254 78.4409 35.1606 78.5646 35.0389C78.6882 34.9173 78.8558 34.8488 79.0307 34.8483Z" fill="white"/>
</mask>
<g mask="url(#mask1_106_80)">
<path d="M109 34.8483H75.3684V76.2185H109V34.8483Z" fill="white"/>
</g>
<mask id="mask2_106_80" style="mask-type:luminance" maskUnits="userSpaceOnUse" x="54" y="40" width="22" height="24">
<path d="M61.1115 47.0239C59.7633 45.6705 59.3366 43.2528 61.0859 41.9739C62.785 40.7318 64.744 42.6216 64.5399 44.4313C64.3671 45.9636 62.9988 47.2821 62.8341 47.4359C63.0015 47.5627 63.1705 47.6876 63.341 47.8106C64.7571 46.1698 65.7256 44.1202 64.499 42.2214C63.4627 40.6171 61.1929 39.9832 59.4291 42.1084C57.9874 43.8455 57.969 46.9394 60.3889 49.2721L60.3821 49.2757C60.3821 49.2757 57.3015 51.1921 55.5605 53.4109C54.0726 55.3219 54.2015 58.5897 55.8967 60.3546C57.6855 62.2169 60.8225 61.9379 63.0518 59.89C64.1096 58.9184 65.4729 57.2901 66.7605 54.6383C66.5423 54.4848 66.324 54.3317 66.1054 54.1788L66.0842 54.187C66.0842 54.187 64.5485 56.9142 62.8179 58.4228C58.9902 61.7597 54.4976 57.7168 57.8715 53.3325C58.8353 52.0839 59.9209 50.9308 61.1127 49.8899C61.1261 49.9 61.1392 49.9104 61.1527 49.9205C63.3902 51.5946 65.9132 53.2935 68.2167 54.9389C68.2167 54.9389 71.0107 56.9722 70.4852 59.6233C70.4852 59.6233 69.883 62.8492 66.158 62.6719C66.158 62.6719 65.6285 62.6395 65.6285 62.8826C65.6285 62.8826 65.4912 63.2403 66.6306 63.4293C70.9635 64.1414 73.4426 59.9214 71.7867 56.2866C71.0533 54.677 69.6596 53.2589 68.189 52.1145C68.7699 51.0728 69.4398 49.8064 70.2374 48.8746C70.7549 48.2701 71.4979 47.6199 72.3053 47.3203C72.5891 47.2002 72.8967 47.1442 73.2055 47.1564C73.5142 47.1685 73.8163 47.2486 74.0894 47.3907C74.2553 47.4803 74.4011 47.6019 74.5182 47.7481C74.6409 47.9037 74.7382 48.0771 74.8066 48.2622C74.8176 48.2908 74.8341 48.3169 74.8554 48.3392C74.8766 48.3615 74.9021 48.3794 74.9303 48.392C74.9586 48.4046 74.9891 48.4116 75.0202 48.4126C75.0512 48.4136 75.0821 48.4086 75.1111 48.3978C75.1402 48.387 75.1668 48.3708 75.1894 48.3499C75.2121 48.329 75.2303 48.304 75.2431 48.2761C75.2559 48.2483 75.2631 48.2183 75.2641 48.1878C75.2651 48.1573 75.26 48.1269 75.249 48.0983C75.1634 47.868 75.0418 47.6521 74.8885 47.4587C74.7324 47.264 74.5381 47.1021 74.3171 46.9828C73.9846 46.8072 73.6162 46.7073 73.2392 46.6904C72.8621 46.6735 72.486 46.7401 72.1386 46.8852C71.2465 47.2162 70.4363 47.9221 69.8765 48.576C69.0616 49.5706 68.3341 50.6314 67.7018 51.747C67.6121 51.6814 67.5225 51.6169 67.4329 51.5533C65.7597 50.3588 62.4235 48.3411 61.1115 47.0239Z" fill="white"/>
</mask>
<g mask="url(#mask2_106_80)">
<path d="M75.2949 39.9832H54.0725V64.1414H75.2949V39.9832Z" fill="white"/>
</g>
</svg>
